#!OML:ASF H:\Dans Jumps\Project 1\Capture day 1\Session 1\subject.ASF
:FULLY-SPECIFIED
:DEGREES
295
root 0.585425 17.3853 -2.81026 5.08797 -0.389312 -0.94563
lowerback 3.32181 -0.114177 -0.634432
upperback 4.5416 -0.196076 1.72826
thorax 2.8157 -0.148595 2.13519
lowerneck -12.9272 -0.286792 -1.84707
upperneck 32.4535 -0.278116 1.05652
head 12.9884 -0.210369 0.693019
rclavicle -2.38542e-015 6.75868e-015
rhumerus -14.1148 -28.2821 -80.4308
rradius 19.2116
rwrist 42.3092
rhand -21.683 -27.2019
rfingers 7.12502
rthumb 4.71483 -57.1295
lclavicle -2.38542e-015 6.75868e-015
lhumerus -14.8259 8.08782 86.2393
lradius 15.1163
lwrist -0.938188
lhand -27.5353 -6.2362
lfingers 7.12502
lthumb -0.93709 23.7415
rfemur -22.3683 -2.76981 18.6914
rtibia 33.9042
rfoot -14.9638 -0.98112
rtoes 10.0276
lfemur -21.9937 8.39898 -18.8586
ltibia 31.2297
lfoot -11.9585 4.88529
ltoes 2.00867
296
root 0.58967 17.3904 -2.79019 5.12919 -0.413186 -0.996317
lowerback 3.27327 -0.110914 -0.594465
upperback 4.5492 -0.191727 1.73934
thorax 2.85049 -0.145697 2.12407
lowerneck -12.9138 -0.301625 -1.86872
upperneck 32.447 -0.304076 1.0858
head 12.9833 -0.220668 0.704305
rclavicle -2.48481e-015 1.94809e-014
rhumerus -14.4359 -28.0043 -80.3316
rradius 19.2373
rwrist 42.1632
rhand -21.4578 -27.2332
rfingers 7.12502
rthumb 4.93228 -57.1558
lclavicle -2.48481e-015 1.94809e-014
lhumerus -14.9543 7.51083 86.4447
lradius 15.1928
lwrist -0.506842
lhand -27.3995 -6.13597
lfingers 7.12502
lthumb -0.805957 23.8423
rfemur -22.272 -2.76968 18.7329
rtibia 33.7705
rfoot -14.9533 -0.965619
rtoes 9.97344
lfemur -21.9135 8.38254 -18.8119
ltibia 31.1461
lfoot -11.9628 4.92937
ltoes 2.03625
297
root 0.593627 17.3955 -2.76978 5.16572 -0.442006 -1.03792
lowerback 3.22213 -0.107124 -0.566224
upperback 4.55971 -0.186839 1.74689
thorax 2.88977 -0.142869 2.11591
lowerneck -12.9021 -0.3102 -1.88815
upperneck 32.4379 -0.319319 1.10873
head 12.9773 -0.226814 0.714287
rclavicle -3.57812e-015 -2.38542e-015
rhumerus -14.7444 -27.6613 -80.2595
rradius 19.2762
rwrist 42.0112
rhand -21.241 -27.224
rfingers 7.12502
rthumb 5.14166 -57.1416
lclavicle -3.57812e-015 -2.38542e-015
lhumerus -15.0725 6.94203 86.6483
lradius 15.2531
lwrist -0.209678
lhand -27.2635 -6.04199
lfingers 7.12502
lthumb -0.67459 23.9367
rfemur -22.172 -2.76172 18.7655
rtibia 33.6399
rfoot -14.9386 -0.956144
rtoes 9.91581
lfemur -21.8188 8.36318 -18.7734
ltibia 31.0473
lfoot -11.956 4.97918
ltoes 2.0496
298
root 0.597288 17.4008 -2.74916 5.19926 -0.475655 -1.06768
lowerback 3.16602 -0.102705 -0.549434
upperback 4.57249 -0.181184 1.74787
thorax 2.93422 -0.139937 2.10741
lowerneck -12.888 -0.313128 -1.90004
upperneck 32.4282 -0.325663 1.12344
head 12.9703 -0.229217 0.721048
rclavicle 3.77691e-015 -7.95139e-016
rhumerus -15.0382 -27.2904 -80.2126
rradius 19.3133
rwrist 41.8844
rhand -21.0486 -27.1664
rfingers 7.12502
rthumb 5.32739 -57.0794
lclavicle 3.77691e-015 -7.95139e-016
lhumerus -15.1836 6.37717 86.8463
lradius 15.3026
lwrist -0.0409906
lhand -27.1239 -5.94683
lfingers 7.12502
lthumb -0.539736 24.0322
rfemur -22.0712 -2.7449 18.786
rtibia 33.5151
rfoot -14.9256 -0.950626
rtoes 9.89022
lfemur -21.7107 8.34094 -18.7462
ltibia 30.9325
lfoot -11.9412 5.03161
ltoes 2.05065
299
root 0.600488 17.4062 -2.72835 5.23201 -0.510882 -1.08067
lowerback 3.10786 -0.0986128 -0.548182
upperback 4.58242 -0.175917 1.73997
thorax 2.9769 -0.137487 2.09848
lowerneck -12.8653 -0.310089 -1.90321
upperneck 32.424 -0.323167 1.13002
head 12.9636 -0.227789 0.724444
rclavicle 3.47873e-015 -1.31198e-014
rhumerus -15.3307 -26.9003 -80.1874
rradius 19.3524
rwrist 41.7766
rhand -20.8994 -27.0506
rfingers 7.12502
rthumb 5.47147 -56.9599
lclavicle 3.47873e-015 -1.31198e-014
lhumerus -15.296 5.82087 87.0331
lradius 15.3398
lwrist 0.0153751
lhand -26.9648 -5.88816
lfingers 7.12502
lthumb -0.386095 24.0912
rfemur -21.9727 -2.71844 18.7898
rtibia 33.3981
rfoot -14.9143 -0.956701
rtoes 9.86949
lfemur -21.5923 8.3136 -18.735
ltibia 30.803
lfoot -11.9193 5.08487
ltoes 2.05496
300
root 0.603257 17.4117 -2.70743 5.26302 -0.548613 -1.079
lowerback 3.04472 -0.0953683 -0.56237
upperback 4.59259 -0.171783 1.7253
thorax 3.02272 -0.13599 2.09125
lowerneck -12.8437 -0.300932 -1.89532
upperneck 32.4324 -0.310855 1.12472
head 12.9622 -0.222321 0.722803
rclavicle -4.17448e-015 9.14409e-015
rhumerus -15.6132 -26.5086 -80.1851
rradius 19.3924
rwrist 41.6793
rhand -20.7899 -26.9038
rfingers 7.12502
rthumb 5.5772 -56.8104
lclavicle -4.17448e-015 9.14409e-015
lhumerus -15.4056 5.25996 87.2132
lradius 15.366
lwrist 0.00248895
lhand -26.7893 -5.86874
lfingers 7.12502
lthumb -0.216588 24.1109
rfemur -21.8758 -2.68121 18.7787
rtibia 33.2888
rfoot -14.9061 -0.97128
rtoes 9.86583
lfemur -21.463 8.28404 -18.7374
ltibia 30.6588
lfoot -11.8937 5.13729
ltoes 2.06217
301
root 0.605611 17.4171 -2.68658 5.29447 -0.590966 -1.06733
lowerback 2.97754 -0.092521 -0.587247
upperback 4.60154 -0.168112 1.7055
thorax 3.0696 -0.134978 2.08473
lowerneck -12.8162 -0.286669 -1.8826
upperneck 32.4469 -0.291156 1.11512
head 12.962 -0.213638 0.719755
rclavicle -2.68359e-015 -2.22639e-014
rhumerus -15.8888 -26.099 -80.2082
rradius 19.4488
rwrist 41.5586
rhand -20.6948 -26.7658
rfingers 7.12502
rthumb 5.66901 -56.67
lclavicle -2.68359e-015 -2.22639e-014
lhumerus -15.5119 4.68607 87.39
lradius 15.3913
lwrist -0.0354939
lhand -26.6002 -5.83164
lfingers 7.12502
lthumb -0.0339547 24.1481
rfemur -21.784 -2.63065 18.7579
rtibia 33.1857
rfoot -14.8998 -0.998022
rtoes 9.84426
lfemur -21.3271 8.25442 -18.7486
ltibia 30.5017
lfoot -11.8635 5.18816
ltoes 2.08602
302
root 0.607794 17.4227 -2.6656 5.32453 -0.633205 -1.04221
lowerback 2.90133 -0.0930372 -0.625051
upperback 4.61332 -0.16892 1.68165
thorax 3.12474 -0.136631 2.08132
lowerneck -12.7822 -0.266572 -1.8681
upperneck 32.4627 -0.26174 1.09993
head 12.9608 -0.201242 0.715634
rclavicle 1.88845e-015 3.18055e-015
rhumerus -16.1551 -25.6786 -80.2526
rradius 19.5222
rwrist 41.4147
rhand -20.6054 -26.6457
rfingers 7.12502
rthumb 5.75532 -56.5476
lclavicle 1.88845e-015 3.18055e-015
lhumerus -15.6112 4.09299 87.5696
lradius 15.4238
lwrist -0.0612566
lhand -26.4082 -5.73516
lfingers 7.12502
lthumb 0.151478 24.2445
rfemur -21.6911 -2.5789 18.7221
rtibia 33.086
rfoot -14.8962 -1.02615
rtoes 9.83364
lfemur -21.1829 8.22381 -18.7738
ltibia 30.3341
lfoot -11.8324 5.23652
ltoes 2.11476
303
root 0.609845 17.4283 -2.64471 5.35376 -0.675351 -1.00817
lowerback 2.81651 -0.0964027 -0.671491
upperback 4.63029 -0.173504 1.65575
thorax 3.19033 -0.140542 2.08064
lowerneck -12.7474 -0.242327 -1.85649
upperneck 32.4768 -0.22546 1.08458
head 12.9584 -0.186219 0.712928
rclavicle -8.94531e-016 -1.59028e-015
rhumerus -16.4062 -25.2643 -80.3166
rradius 19.6161
rwrist 41.2535
rhand -20.5274 -26.5369
rfingers 7.12502
rthumb 5.83067 -56.4367
lclavicle -8.94531e-016 -1.59028e-015
lhumerus -15.6986 3.49522 87.7528
lradius 15.4689
lwrist -0.0692999
lhand -26.2248 -5.56432
lfingers 7.12502
lthumb 0.328623 24.4152
rfemur -21.5982 -2.5273 18.6765
rtibia 32.9872
rfoot -14.8914 -1.05669
rtoes 9.79623
lfemur -21.0343 8.19498 -18.8087
ltibia 30.1596
lfoot -11.8017 5.28242
ltoes 2.13687
304
root 0.611797 17.434 -2.62399 5.37969 -0.71397 -0.97026
lowerback 2.72878 -0.102821 -0.720015
upperback 4.65157 -0.182062 1.62905
thorax 3.26224 -0.146594 2.08031
lowerneck -12.7094 -0.215511 -1.85024
upperneck 32.4886 -0.185172 1.07261
head 12.9545 -0.169652 0.713029
rclavicle -6.75868e-015 1.74931e-014
rhumerus -16.6449 -24.8625 -80.3956
rradius 19.7275
rwrist 41.066
rhand -20.4322 -26.4631
rfingers 7.12502
rthumb 5.92257 -56.3604
lclavicle -6.75868e-015 1.74931e-014
lhumerus -15.78 2.90829 87.9359
lradius 15.5278
lwrist -0.0806126
lhand -26.0406 -5.29515
lfingers 7.12502
lthumb 0.50649 24.684
rfemur -21.4999 -2.47864 18.6261
rtibia 32.8859
rfoot -14.8868 -1.08686
rtoes 9.75257
lfemur -20.8806 8.1667 -18.8475
ltibia 29.9812
lfoot -11.7712 5.32456
ltoes 2.15378
305
root 0.613563 17.4396 -2.60371 5.40477 -0.744639 -0.934813
lowerback 2.64271 -0.113211 -0.763926
upperback 4.67247 -0.195761 1.60306
thorax 3.33306 -0.155087 2.07808
lowerneck -12.6684 -0.18586 -1.84482
upperneck 32.5046 -0.140457 1.06018
head 12.9515 -0.151338 0.713747
rclavicle 1.49089e-015 7.95139e-016
rhumerus -16.882 -24.4694 -80.4867
rradius 19.8618
rwrist 40.8396
rhand -20.3284 -26.4156
rfingers 7.12502
rthumb 6.02275 -56.31
lclavicle 1.49089e-015 7.95139e-016
lhumerus -15.8578 2.36713 88.1095
lradius 15.5897
lwrist -0.135398
lhand -25.8495 -4.98703
lfingers 7.12502
lthumb 0.691124 24.9916
rfemur -21.3986 -2.43544 18.5787
rtibia 32.7806
rfoot -14.8789 -1.11676
rtoes 9.70892
lfemur -20.729 8.13903 -18.8838
ltibia 29.8033
lfoot -11.741 5.36294
ltoes 2.15616
306
root 0.615215 17.4453 -2.58369 5.42783 -0.767432 -0.907097
lowerback 2.55681 -0.125575 -0.795814
upperback 4.69399 -0.211961 1.57836
thorax 3.40451 -0.164475 2.07037
lowerneck -12.6298 -0.154829 -1.83689
upperneck 32.5298 -0.0936696 1.04566
head 12.953 -0.13211 0.713572
rclavicle -2.5842e-015 7.95139e-016
rhumerus -17.1166 -24.1064 -80.5846
rradius 20.0074
rwrist 40.5818
rhand -20.2265 -26.3905
rfingers 7.12502
rthumb 6.12114 -56.2821
lclavicle -2.5842e-015 7.95139e-016
lhumerus -15.9292 1.88793 88.2699
lradius 15.6427
lwrist -0.253139
lhand -25.6329 -4.65259
lfingers 7.12502
lthumb 0.900348 25.3253
rfemur -21.2909 -2.39876 18.5398
rtibia 32.6695
rfoot -14.8702 -1.14462
rtoes 9.66513
lfemur -20.5787 8.11067 -18.9114
ltibia 29.6287
lfoot -11.716 5.39902
ltoes 2.14556
307
root 0.616583 17.4509 -2.56412 5.45132 -0.778889 -0.888818
lowerback 2.47759 -0.14115 -0.815095
upperback 4.71141 -0.23232 1.55531
thorax 3.46808 -0.175459 2.05721
lowerneck -12.5947 -0.122491 -1.82452
upperneck 32.5709 -0.0450525 1.02792
head 12.9619 -0.112035 0.711743
rclavicle -2.68359e-015 -8.15017e-015
rhumerus -17.3563 -23.7555 -80.6896
rradius 20.1654
rwrist 40.2715
rhand -20.1416 -26.3742
rfingers 7.12502
rthumb 6.20314 -56.2634
lclavicle -2.68359e-015 -8.15017e-015
lhumerus -15.9983 1.47909 88.4115
lradius 15.6785
lwrist -0.427776
lhand -25.3995 -4.37248
lfingers 7.12502
lthumb 1.12569 25.6043
rfemur -21.1808 -2.3678 18.5125
rtibia 32.5533
rfoot -14.866 -1.17728
rtoes 9.61198
lfemur -20.4355 8.07939 -18.9279
ltibia 29.4603
lfoot -11.6935 5.43186
ltoes 2.13427
